HIERARCHY
ROOT ui
{
	 OFFSET 0 0 0
	 CHANNELS 3 XPosition YPosition Z Position
	 EndSite
	 {
	 OFFSET 0 -1 0
	 }
}
ROOT li
{
	 OFFSET 0 0 0
	 CHANNELS 3 XPosition YPosition Z Position
	 EndSite
	 {
	 OFFSET 0 -1 0
	 }
}
ROOT ul
{
	 OFFSET 0 0 0
	 CHANNELS 3 XPosition YPosition Z Position
	 EndSite
	 {
	 OFFSET 0 -1 0
	 }
}
ROOT ll
{
	 OFFSET 0 0 0
	 CHANNELS 3 XPosition YPosition Z Position
	 EndSite
	 {
	 OFFSET 0 -1 0
	 }
}
ROOT tt
{
	 OFFSET 0 0 0
	 CHANNELS 3 XPosition YPosition Z Position
	 EndSite
	 {
	 OFFSET 0 -1 0
	 }
}
ROOT tb
{
	 OFFSET 0 0 0
	 CHANNELS 3 XPosition YPosition Z Position
	 EndSite
	 {
	 OFFSET 0 -1 0
	 }
}
ROOT td
{
	 OFFSET 0 0 0
	 CHANNELS 3 XPosition YPosition Z Position
	 EndSite
	 {
	 OFFSET 0 -1 0
	 }
}
ROOT v
{
	 OFFSET 0 0 0
	 CHANNELS 3 XPosition YPosition Z Position
	 EndSite
	 {
	 OFFSET 0 -1 0
	 }
}
ROOT bn
{
	 OFFSET 0 0 0
	 CHANNELS 3 XPosition YPosition Z Position
	 EndSite
	 {
	 OFFSET 0 -1 0
	 }
}
MOTION
Frames: 19
Frame Time: 0.002
-3.9445599913597105E-4	-0.0036884880065917967	0		0.5764738159179688	-2.508285888671875	0		-0.9203502197265625	0.21362774658203126	0		-0.27160537719726563	-2.64604541015625	0		2.109205078125	-1.29230712890625	0		3.347345458984375	-0.11507563781738281	0		4.65761962890625	0.4480494384765625	0		5.81421923828125	0.22754060363769532	0		-0.3281529235839844	5.8976640625	0		
0.0012493510246276856	-0.011501614570617675	0		0.58780859375	-2.515319091796875	0		-0.9046507568359375	0.20772879028320312	0		-0.3061376647949219	-2.6422998046875	0		2.044835693359375	-1.2894307861328125	0		3.34093212890625	-0.12620297241210937	0		4.64762890625	0.4608091125488281	0		5.8107626953125	0.27518118286132814	0		-0.331427734375	5.91197802734375	0		
-0.070748291015625	0.0057494349479675294	0		0.5913485107421875	-2.510252197265625	0		-0.8948814697265625	0.20688246154785156	0		-0.2578084716796875	-2.650788330078125	0		2.051592041015625	-1.279578857421875	0		3.322356201171875	-0.08012425994873047	0		4.64195849609375	0.4955452880859375	0		5.8215634765625	0.3206701049804688	0		-0.16358270263671876	5.93775439453125	0		
0.00598380994796753	0.0037926690578460693	0		0.61782666015625	-2.511537353515625	0		-0.90103076171875	0.2122383270263672	0		-0.30314453125	-2.637921875	0		2.05121484375	-1.2796151123046875	0		3.266960693359375	-0.0894764404296875	0		4.60909375	0.5177279663085937	0		5.82072265625	0.3286114196777344	0		-0.17933235168457032	5.93018408203125	0		
0.010658175468444823	-0.001125025987625122	0		0.5883277587890625	-2.513003173828125	0		-0.9053221435546875	0.20853443908691408	0		-0.2428283233642578	-2.65164501953125	0		2.048791748046875	-1.28360888671875	0		3.2599853515625	-0.07050558471679688	0		4.593994140625	0.524700927734375	0		5.82145458984375	0.36083709716796875	0		-0.17906063842773437	5.9303564453125	0		
0.0014208489656448364	1.4718200266361237E-4	0		0.6019498901367187	-2.509117431640625	0		-0.9055601806640625	0.20873880004882814	0		-0.2782556457519531	-2.649965576171875	0		2.0114940185546875	-1.28006640625	0		3.23381982421875	-0.06421611022949218	0		4.55009814453125	0.546160888671875	0		5.81867431640625	0.4019637451171875	0		-0.31221139526367186	5.90950048828125	0		
-0.004935822010040283	-0.006641557216644287	0		0.5874948120117187	-2.51282080078125	0		-0.9058003540039062	0.20891134643554687	0		-0.24876885986328126	-2.65727880859375	0		1.9869755859375	-1.2926998291015626	0		3.199003173828125	-0.03475939178466797	0		4.5392841796875	0.5731817016601563	0		5.8230185546875	0.44122369384765625	0		-0.3310614318847656	5.913923828125	0		
0.004979706764221191	0.004309841156005859	0		0.5891847534179687	-2.509773193359375	0		-0.90198046875	0.21299200439453125	0		-0.3150020141601563	-2.648172119140625	0		1.9538265380859374	-1.2821849365234375	0		3.15853173828125	-0.049187591552734375	0		4.5243623046875	0.5933163452148438	0		5.832251953125	0.463125244140625	0		-0.2969734802246094	5.91952783203125	0		
0.0047370028495788575	0.004396214008331299	0		0.589905029296875	-2.5077177734375	0		-0.9022175903320313	0.21310256958007812	0		-0.24944369506835937	-2.657072021484375	0		1.938400390625	-1.2919232177734374	0		3.1576044921875	-0.028172666549682618	0		4.5002587890625	0.601643310546875	0		5.83364501953125	0.485441162109375	0		-0.17887564086914062	5.9308408203125	0		
-0.002602824926376343	-0.0024267239570617675	0		0.586568359375	-2.512607421875	0		-0.9024503173828125	0.21318276977539063	0		-0.28771759033203126	-2.657425048828125	0		1.9161240234375	-1.293540771484375	0		3.092497314453125	-0.01915509605407715	0		4.47044140625	0.6291160888671875	0		5.83227783203125	0.5218346557617187	0		-0.194212158203125	5.92014111328125	0		
2.163639962673187E-4	5.826339721679688E-4	0		0.6004154663085938	-2.508760986328125	0		-0.9026773071289063	0.21323268127441405	0		-0.25805255126953125	-2.665823486328125	0		1.9138604736328124	-1.2964444580078125	0		3.084302734375	-0.016962207794189454	0		4.45121435546875	0.6294829711914063	0		5.83437451171875	0.5409359741210937	0		-0.33254605102539064	5.9162783203125	0		
-0.006103608131408691	-0.006286637783050537	0		0.5861961059570312	-2.512496826171875	0		-0.9028970947265625	0.21325259399414062	0		-0.2931907958984375	-2.66426220703125	0		1.8626190185546876	-1.2995943603515625	0		3.0560458984375	-0.019433462142944335	0		4.43428857421875	0.6498729858398438	0		5.84429052734375	0.5546966552734375	0		-0.2968485107421875	5.918767578125	0		
0.008782257080078125	-4.883910119533539E-4	0		0.589162841796875	-2.507495849609375	0		-0.8880645751953125	0.21601736450195314	0		-0.2695364074707031	-2.680607666015625	0		1.845542236328125	-1.2942445068359374	0		3.030372802734375	0.016093318939208984	0		4.41357470703125	0.684376708984375	0		5.84294287109375	0.59149853515625	0		-0.1649438018798828	5.93979443359375	0		
0.008593293190002441	-4.7693198919296267E-4	0		0.5911380615234375	-2.5054833984375	0		-0.890130126953125	0.22500965881347657	0		-0.24852406311035155	-2.676926025390625	0		1.8423780517578126	-1.2970892333984374	0		2.97084521484375	-0.005846875190734863	0		4.3833525390625	0.68507373046875	0		5.8386328125	0.6095130615234375	0		-0.1815693817138672	5.932037109375	0		
0.0034938769340515136	0.004596614837646484	0		0.6369520263671875	-2.518128173828125	0		-0.9034976196289063	0.21314247131347655	0		-0.2566475219726562	-2.685823974609375	0		1.8002825927734376	-1.2973370361328125	0		2.9758642578125	0.007280747890472412	0		4.3753251953125	0.6984924926757813	0		5.83434130859375	0.629389404296875	0		-0.18215257263183593	5.9320234375	0		
-0.0068294301033020016	-0.006265073776245117	0		0.5860791015625	-2.512331298828125	0		-0.9096014404296875	0.21814471435546876	0		-0.21785751342773438	-2.704432861328125	0		1.8020211181640624	-1.311227783203125	0		2.948794677734375	0.013915037155151367	0		4.34921337890625	0.7062276000976563	0		5.83717919921875	0.6473990478515625	0		-0.33127703857421875	5.90119482421875	0		
-0.003918879985809326	-0.002330579996109009	0		0.6101065063476563	-2.5166494140625	0		-0.8947280883789063	0.220817138671875	0		-0.25273182678222655	-2.7029580078125	0		1.774029052734375	-1.308665283203125	0		2.94192529296875	0.03327477645874023	0		4.3452783203125	0.7256755981445312	0		5.8370654296875	0.648318603515625	0		-0.31682342529296875	5.9119208984375	0		
0.0030458030700683592	0.004538887023925782	0		0.5883372192382812	-2.50929150390625	0		-0.890830322265625	0.2246376495361328	0		-0.24579191589355467	-2.7171123046875	0		1.7928948974609376	-1.31778369140625	0		2.913582763671875	0.019966506958007814	0		4.31525830078125	0.7395404052734375	0		5.84337744140625	0.6490994873046875	0		-0.19943055725097655	5.9211337890625	0		
0.002919187068939209	0.004507708072662354	0		0.6394013671875	-2.515996337890625	0		-0.90183544921875	0.23466438293457031	0		-0.2157166748046875	-2.724606201171875	0		1.7959605712890625	-1.3146571044921875	0		2.931684814453125	0.036000270843505856	0		4.29505126953125	0.7402853393554687	0		5.83858642578125	0.7005241088867188	0		-0.20022373962402343	5.92107958984375	0		
